<svg width="397" height="212" viewBox="0 0 397 212" fill="none" xmlns="http://www.w3.org/2000/svg">
<path d="M0.792 48L17.624 1.28H28.248L45.592 48H39.128L23.448 5.376L26.52 6.912H18.968L22.232 5.376L7.064 48H0.792ZM10.84 34.048L12.952 28.416H33.112L35.224 34.048H10.84ZM53.272 48V1.28H59.416V48H53.272ZM48.536 6.144V1.28H59.416V6.144H48.536ZM71.5845 48V1.28H77.7285V48H71.5845ZM66.8485 6.144V1.28H77.7285V6.144H66.8485ZM91.177 48V13.824H97.321V48H91.177ZM85.929 18.688V13.824H97.321V18.688H85.929ZM92.905 8.32C91.5397 8.32 90.5157 7.95733 89.833 7.232C89.193 6.50666 88.873 5.58933 88.873 4.48C88.873 3.37067 89.193 2.45333 89.833 1.728C90.5157 1.00267 91.5397 0.639999 92.905 0.639999C94.2703 0.639999 95.273 1.00267 95.913 1.728C96.5957 2.45333 96.937 3.37067 96.937 4.48C96.937 5.58933 96.5957 6.50666 95.913 7.232C95.273 7.95733 94.2703 8.32 92.905 8.32ZM129.873 48V37.76H128.849V25.92C128.849 23.5733 128.23 21.8027 126.993 20.608C125.798 19.4133 124.027 18.816 121.681 18.816C120.358 18.816 118.993 18.8373 117.585 18.88C116.177 18.9227 114.833 18.9653 113.553 19.008C112.273 19.0507 111.163 19.1147 110.225 19.2V13.824C111.163 13.7387 112.145 13.6747 113.169 13.632C114.235 13.5467 115.323 13.504 116.433 13.504C117.542 13.4613 118.609 13.44 119.633 13.44C123.131 13.44 125.99 13.8667 128.209 14.72C130.427 15.5307 132.07 16.8747 133.137 18.752C134.203 20.6293 134.737 23.168 134.737 26.368V48H129.873ZM118.673 48.896C116.113 48.896 113.894 48.4693 112.017 47.616C110.182 46.72 108.753 45.44 107.729 43.776C106.747 42.112 106.257 40.1067 106.257 37.76C106.257 35.328 106.79 33.3013 107.857 31.68C108.966 30.0587 110.566 28.8427 112.657 28.032C114.747 27.1787 117.265 26.752 120.208 26.752H129.489V31.36H119.953C117.478 31.36 115.579 31.9573 114.257 33.152C112.934 34.3467 112.273 35.8827 112.273 37.76C112.273 39.6373 112.934 41.152 114.257 42.304C115.579 43.456 117.478 44.032 119.953 44.032C121.403 44.032 122.79 43.776 124.113 43.264C125.435 42.7093 126.523 41.8133 127.377 40.576C128.273 39.296 128.763 37.5467 128.849 35.328L130.513 37.76C130.299 40.192 129.702 42.24 128.721 43.904C127.782 45.5253 126.459 46.7627 124.753 47.616C123.089 48.4693 121.062 48.896 118.673 48.896ZM146.013 48V13.824H150.877V28.48H150.109C150.109 25.1093 150.557 22.272 151.453 19.968C152.392 17.6213 153.8 15.8507 155.677 14.656C157.554 13.4187 159.922 12.8 162.781 12.8H163.037C167.346 12.8 170.525 14.144 172.573 16.832C174.664 19.52 175.709 23.4027 175.709 28.48V48H169.565V27.2C169.565 24.5547 168.818 22.4427 167.325 20.864C165.832 19.2427 163.784 18.432 161.181 18.432C158.493 18.432 156.317 19.264 154.653 20.928C152.989 22.592 152.157 24.8107 152.157 27.584V48H146.013ZM201.607 49.152C198.663 49.152 196.103 48.64 193.927 47.616C191.793 46.592 190.023 45.2267 188.615 43.52C187.207 41.7707 186.14 39.8507 185.415 37.76C184.732 35.6693 184.391 33.5787 184.391 31.488V30.336C184.391 28.16 184.732 26.0267 185.415 23.936C186.14 21.8453 187.207 19.968 188.615 18.304C190.065 16.5973 191.857 15.232 193.991 14.208C196.124 13.184 198.62 12.672 201.479 12.672C204.337 12.672 206.897 13.2053 209.159 14.272C211.463 15.3387 213.297 16.8533 214.663 18.816C216.071 20.736 216.86 23.0187 217.031 25.664H211.143C210.844 23.5307 209.863 21.76 208.199 20.352C206.535 18.9013 204.295 18.176 201.479 18.176C199.047 18.176 197.02 18.7307 195.399 19.84C193.777 20.9493 192.561 22.464 191.751 24.384C190.94 26.304 190.535 28.48 190.535 30.912C190.535 33.2587 190.94 35.4133 191.751 37.376C192.561 39.296 193.777 40.832 195.399 41.984C197.063 43.0933 199.132 43.648 201.607 43.648C203.527 43.648 205.191 43.3067 206.599 42.624C208.007 41.9413 209.137 41.024 209.991 39.872C210.844 38.72 211.356 37.4187 211.527 35.968H217.415C217.287 38.656 216.497 40.9813 215.047 42.944C213.639 44.9067 211.761 46.4427 209.415 47.552C207.111 48.6187 204.508 49.152 201.607 49.152ZM240.291 49.152C237.304 49.152 234.723 48.64 232.547 47.616C230.371 46.592 228.6 45.248 227.235 43.584C225.87 41.8773 224.846 39.9787 224.163 37.888C223.523 35.7973 223.203 33.664 223.203 31.488V30.336C223.203 28.1173 223.523 25.9627 224.163 23.872C224.846 21.7813 225.87 19.904 227.235 18.24C228.6 16.5333 230.328 15.1893 232.419 14.208C234.552 13.184 237.048 12.672 239.907 12.672C243.619 12.672 246.67 13.4827 249.059 15.104C251.491 16.6827 253.283 18.7307 254.435 21.248C255.63 23.7653 256.227 26.4533 256.227 29.312V32.064H225.891V27.456H251.747L250.339 29.952C250.339 27.52 249.955 25.4293 249.187 23.68C248.419 21.888 247.267 20.5013 245.731 19.52C244.195 18.5387 242.254 18.048 239.907 18.048C237.475 18.048 235.448 18.6027 233.827 19.712C232.248 20.8213 231.054 22.336 230.243 24.256C229.475 26.176 229.091 28.3947 229.091 30.912C229.091 33.344 229.475 35.5413 230.243 37.504C231.054 39.424 232.291 40.96 233.955 42.112C235.619 43.2213 237.731 43.776 240.291 43.776C242.979 43.776 245.155 43.1787 246.819 41.984C248.526 40.7893 249.55 39.4027 249.891 37.824H255.651C255.182 40.1707 254.243 42.1973 252.835 43.904C251.427 45.6107 249.656 46.912 247.523 47.808C245.39 48.704 242.979 49.152 240.291 49.152ZM280.409 48V12.096C280.409 8.29866 281.412 5.504 283.417 3.712C285.422 1.92 288.366 1.024 292.249 1.024H296.473V6.144H291.225C289.646 6.144 288.43 6.592 287.577 7.488C286.724 8.34133 286.297 9.536 286.297 11.072V48H280.409ZM275.673 18.816V14.208H297.113V18.816H275.673ZM319.257 49.152C316.27 49.152 313.646 48.64 311.385 47.616C309.124 46.592 307.204 45.248 305.625 43.584C304.089 41.8773 302.916 39.9787 302.105 37.888C301.337 35.7973 300.953 33.664 300.953 31.488V30.336C300.953 28.16 301.358 26.0267 302.169 23.936C302.98 21.8027 304.174 19.904 305.753 18.24C307.332 16.5333 309.252 15.1893 311.513 14.208C313.774 13.184 316.356 12.672 319.257 12.672C322.158 12.672 324.74 13.184 327.001 14.208C329.262 15.1893 331.182 16.5333 332.761 18.24C334.34 19.904 335.534 21.8027 336.345 23.936C337.156 26.0267 337.561 28.16 337.561 30.336V31.488C337.561 33.664 337.156 35.7973 336.345 37.888C335.577 39.9787 334.404 41.8773 332.825 43.584C331.289 45.248 329.39 46.592 327.129 47.616C324.868 48.64 322.244 49.152 319.257 49.152ZM319.257 43.648C321.817 43.648 323.993 43.0933 325.785 41.984C327.62 40.832 329.006 39.296 329.945 37.376C330.926 35.456 331.417 33.3013 331.417 30.912C331.417 28.48 330.926 26.304 329.945 24.384C328.964 22.464 327.556 20.9493 325.721 19.84C323.929 18.7307 321.774 18.176 319.257 18.176C316.782 18.176 314.628 18.7307 312.793 19.84C310.958 20.9493 309.55 22.464 308.569 24.384C307.588 26.304 307.097 28.48 307.097 30.912C307.097 33.3013 307.566 35.456 308.505 37.376C309.486 39.296 310.873 40.832 312.665 41.984C314.5 43.0933 316.697 43.648 319.257 43.648ZM346.763 48V13.824H351.627V27.904H351.371C351.371 22.912 352.459 19.264 354.635 16.96C356.854 14.6133 360.16 13.44 364.555 13.44H365.707V18.944H363.531C360.118 18.944 357.494 19.8613 355.659 21.696C353.824 23.488 352.907 26.0907 352.907 29.504V48H346.763ZM26.072 124.152C21.8053 124.152 18.1573 123.405 15.128 121.912C12.1413 120.419 9.73067 118.477 7.896 116.088C6.06133 113.699 4.71733 111.117 3.864 108.344C3.01067 105.528 2.584 102.819 2.584 100.216V98.808C2.584 95.992 3.01067 93.176 3.864 90.36C4.76 87.544 6.12533 84.984 7.96 82.68C9.79467 80.376 12.184 78.52 15.128 77.112C18.072 75.704 21.592 75 25.688 75C29.8693 75 33.4533 75.7253 36.44 77.176C39.4267 78.6267 41.7947 80.6533 43.544 83.256C45.2933 85.8587 46.36 88.9307 46.744 92.472H40.344C40.0027 89.8267 39.1493 87.6507 37.784 85.944C36.4187 84.1947 34.6907 82.8933 32.6 82.04C30.552 81.1867 28.248 80.76 25.688 80.76C22.9147 80.76 20.4827 81.2507 18.392 82.232C16.3013 83.1707 14.552 84.5147 13.144 86.264C11.7787 87.9707 10.7333 89.9547 10.008 92.216C9.32533 94.4773 8.984 96.9307 8.984 99.576C8.984 102.093 9.32533 104.483 10.008 106.744C10.7333 109.005 11.8 111.011 13.208 112.76C14.6587 114.509 16.4507 115.896 18.584 116.92C20.7173 117.901 23.2133 118.392 26.072 118.392C30.0827 118.392 33.4533 117.389 36.184 115.384C38.9147 113.379 40.5787 110.477 41.176 106.68H47.576C47.1493 109.88 46.0613 112.803 44.312 115.448C42.6053 118.093 40.216 120.205 37.144 121.784C34.1147 123.363 30.424 124.152 26.072 124.152ZM76.435 123V112.76H75.411V100.92C75.411 98.5733 74.7923 96.8027 73.555 95.608C72.3603 94.4133 70.5897 93.816 68.243 93.816C66.9203 93.816 65.555 93.8373 64.147 93.88C62.739 93.9227 61.395 93.9653 60.115 94.008C58.835 94.0507 57.7257 94.1147 56.787 94.2V88.824C57.7257 88.7387 58.707 88.6747 59.731 88.632C60.7977 88.5467 61.8857 88.504 62.995 88.504C64.1043 88.4613 65.171 88.44 66.195 88.44C69.6937 88.44 72.5523 88.8667 74.771 89.72C76.9897 90.5307 78.6323 91.8747 79.699 93.752C80.7657 95.6293 81.299 98.168 81.299 101.368V123H76.435ZM65.235 123.896C62.675 123.896 60.4563 123.469 58.579 122.616C56.7443 121.72 55.315 120.44 54.291 118.776C53.3097 117.112 52.819 115.107 52.819 112.76C52.819 110.328 53.3523 108.301 54.419 106.68C55.5283 105.059 57.1283 103.843 59.219 103.032C61.3097 102.179 63.827 101.752 66.771 101.752H76.051V106.36H66.515C64.0403 106.36 62.1417 106.957 60.819 108.152C59.4963 109.347 58.835 110.883 58.835 112.76C58.835 114.637 59.4963 116.152 60.819 117.304C62.1417 118.456 64.0403 119.032 66.515 119.032C67.9657 119.032 69.3523 118.776 70.675 118.264C71.9977 117.709 73.0857 116.813 73.939 115.576C74.835 114.296 75.3257 112.547 75.411 110.328L77.075 112.76C76.8617 115.192 76.2643 117.24 75.283 118.904C74.3443 120.525 73.0217 121.763 71.315 122.616C69.651 123.469 67.6243 123.896 65.235 123.896ZM92.5755 123V88.824H97.4395V103.48H96.6715C96.6715 100.109 97.1195 97.272 98.0155 94.968C98.9542 92.6213 100.362 90.8507 102.24 89.656C104.117 88.4187 106.485 87.8 109.344 87.8H109.6C113.909 87.8 117.088 89.144 119.136 91.832C121.226 94.52 122.272 98.4027 122.272 103.48V123H116.128V102.2C116.128 99.5547 115.381 97.4427 113.888 95.864C112.394 94.2427 110.346 93.432 107.744 93.432C105.056 93.432 102.88 94.264 101.216 95.928C99.5515 97.592 98.7195 99.8107 98.7195 102.584V123H92.5755ZM148.169 124.152C145.225 124.152 142.665 123.64 140.489 122.616C138.356 121.592 136.585 120.227 135.177 118.52C133.769 116.771 132.702 114.851 131.977 112.76C131.294 110.669 130.953 108.579 130.953 106.488V105.336C130.953 103.16 131.294 101.027 131.977 98.936C132.702 96.8453 133.769 94.968 135.177 93.304C136.628 91.5973 138.42 90.232 140.553 89.208C142.686 88.184 145.182 87.672 148.041 87.672C150.9 87.672 153.46 88.2053 155.721 89.272C158.025 90.3387 159.86 91.8533 161.225 93.816C162.633 95.736 163.422 98.0187 163.593 100.664H157.705C157.406 98.5307 156.425 96.76 154.761 95.352C153.097 93.9013 150.857 93.176 148.041 93.176C145.609 93.176 143.582 93.7307 141.961 94.84C140.34 95.9493 139.124 97.464 138.313 99.384C137.502 101.304 137.097 103.48 137.097 105.912C137.097 108.259 137.502 110.413 138.313 112.376C139.124 114.296 140.34 115.832 141.961 116.984C143.625 118.093 145.694 118.648 148.169 118.648C150.089 118.648 151.753 118.307 153.161 117.624C154.569 116.941 155.7 116.024 156.553 114.872C157.406 113.72 157.918 112.419 158.089 110.968H163.977C163.849 113.656 163.06 115.981 161.609 117.944C160.201 119.907 158.324 121.443 155.977 122.552C153.673 123.619 151.07 124.152 148.169 124.152ZM186.854 124.152C183.867 124.152 181.286 123.64 179.11 122.616C176.934 121.592 175.163 120.248 173.798 118.584C172.432 116.877 171.408 114.979 170.726 112.888C170.086 110.797 169.766 108.664 169.766 106.488V105.336C169.766 103.117 170.086 100.963 170.726 98.872C171.408 96.7813 172.432 94.904 173.798 93.24C175.163 91.5333 176.891 90.1893 178.982 89.208C181.115 88.184 183.611 87.672 186.47 87.672C190.182 87.672 193.232 88.4827 195.622 90.104C198.054 91.6827 199.846 93.7307 200.998 96.248C202.192 98.7653 202.79 101.453 202.79 104.312V107.064H172.454V102.456H198.31L196.902 104.952C196.902 102.52 196.518 100.429 195.75 98.68C194.982 96.888 193.83 95.5013 192.294 94.52C190.758 93.5387 188.816 93.048 186.47 93.048C184.038 93.048 182.011 93.6027 180.39 94.712C178.811 95.8213 177.616 97.336 176.806 99.256C176.038 101.176 175.654 103.395 175.654 105.912C175.654 108.344 176.038 110.541 176.806 112.504C177.616 114.424 178.854 115.96 180.518 117.112C182.182 118.221 184.294 118.776 186.854 118.776C189.542 118.776 191.718 118.179 193.382 116.984C195.088 115.789 196.112 114.403 196.454 112.824H202.214C201.744 115.171 200.806 117.197 199.398 118.904C197.99 120.611 196.219 121.912 194.086 122.808C191.952 123.704 189.542 124.152 186.854 124.152ZM211.513 123V88.824H216.377V102.904H216.121C216.121 97.912 217.209 94.264 219.385 91.96C221.604 89.6133 224.91 88.44 229.305 88.44H230.457V93.944H228.281C224.868 93.944 222.244 94.8613 220.409 96.696C218.574 98.488 217.657 101.091 217.657 104.504V123H211.513ZM273.51 124.152C269.243 124.152 265.595 123.405 262.566 121.912C259.579 120.419 257.168 118.477 255.334 116.088C253.499 113.699 252.155 111.117 251.302 108.344C250.448 105.528 250.022 102.819 250.022 100.216V98.808C250.022 95.992 250.448 93.176 251.302 90.36C252.198 87.544 253.563 84.984 255.398 82.68C257.232 80.376 259.622 78.52 262.566 77.112C265.51 75.704 269.03 75 273.126 75C277.307 75 280.891 75.7253 283.878 77.176C286.864 78.6267 289.232 80.6533 290.982 83.256C292.731 85.8587 293.798 88.9307 294.182 92.472H287.782C287.44 89.8267 286.587 87.6507 285.222 85.944C283.856 84.1947 282.128 82.8933 280.038 82.04C277.99 81.1867 275.686 80.76 273.126 80.76C270.352 80.76 267.92 81.2507 265.83 82.232C263.739 83.1707 261.99 84.5147 260.582 86.264C259.216 87.9707 258.171 89.9547 257.446 92.216C256.763 94.4773 256.422 96.9307 256.422 99.576C256.422 102.093 256.763 104.483 257.446 106.744C258.171 109.005 259.238 111.011 260.646 112.76C262.096 114.509 263.888 115.896 266.022 116.92C268.155 117.901 270.651 118.392 273.51 118.392C277.52 118.392 280.891 117.389 283.622 115.384C286.352 113.379 288.016 110.477 288.614 106.68H295.014C294.587 109.88 293.499 112.803 291.75 115.448C290.043 118.093 287.654 120.205 284.582 121.784C281.552 123.363 277.862 124.152 273.51 124.152ZM323.873 123V112.76H322.849V100.92C322.849 98.5733 322.23 96.8027 320.993 95.608C319.798 94.4133 318.027 93.816 315.681 93.816C314.358 93.816 312.993 93.8373 311.585 93.88C310.177 93.9227 308.833 93.9653 307.553 94.008C306.273 94.0507 305.163 94.1147 304.225 94.2V88.824C305.163 88.7387 306.145 88.6747 307.169 88.632C308.235 88.5467 309.323 88.504 310.433 88.504C311.542 88.4613 312.609 88.44 313.633 88.44C317.131 88.44 319.99 88.8667 322.209 89.72C324.427 90.5307 326.07 91.8747 327.137 93.752C328.203 95.6293 328.737 98.168 328.737 101.368V123H323.873ZM312.673 123.896C310.113 123.896 307.894 123.469 306.017 122.616C304.182 121.72 302.753 120.44 301.729 118.776C300.747 117.112 300.257 115.107 300.257 112.76C300.257 110.328 300.79 108.301 301.857 106.68C302.966 105.059 304.566 103.843 306.657 103.032C308.747 102.179 311.265 101.752 314.208 101.752H323.489V106.36H313.953C311.478 106.36 309.579 106.957 308.257 108.152C306.934 109.347 306.273 110.883 306.273 112.76C306.273 114.637 306.934 116.152 308.257 117.304C309.579 118.456 311.478 119.032 313.953 119.032C315.403 119.032 316.79 118.776 318.113 118.264C319.435 117.709 320.523 116.813 321.377 115.576C322.273 114.296 322.763 112.547 322.849 110.328L324.513 112.76C324.299 115.192 323.702 117.24 322.721 118.904C321.782 120.525 320.459 121.763 318.753 122.616C317.089 123.469 315.062 123.896 312.673 123.896ZM340.013 123V88.824H344.877V102.904H344.621C344.621 97.912 345.709 94.264 347.885 91.96C350.104 89.6133 353.41 88.44 357.805 88.44H358.957V93.944H356.781C353.368 93.944 350.744 94.8613 348.909 96.696C347.074 98.488 346.157 101.091 346.157 104.504V123H340.013ZM380.416 124.152C377.429 124.152 374.848 123.64 372.672 122.616C370.496 121.592 368.725 120.248 367.36 118.584C365.995 116.877 364.971 114.979 364.288 112.888C363.648 110.797 363.328 108.664 363.328 106.488V105.336C363.328 103.117 363.648 100.963 364.288 98.872C364.971 96.7813 365.995 94.904 367.36 93.24C368.725 91.5333 370.453 90.1893 372.544 89.208C374.677 88.184 377.173 87.672 380.032 87.672C383.744 87.672 386.795 88.4827 389.184 90.104C391.616 91.6827 393.408 93.7307 394.56 96.248C395.755 98.7653 396.352 101.453 396.352 104.312V107.064H366.016V102.456H391.872L390.464 104.952C390.464 102.52 390.08 100.429 389.312 98.68C388.544 96.888 387.392 95.5013 385.856 94.52C384.32 93.5387 382.379 93.048 380.032 93.048C377.6 93.048 375.573 93.6027 373.952 94.712C372.373 95.8213 371.179 97.336 370.368 99.256C369.6 101.176 369.216 103.395 369.216 105.912C369.216 108.344 369.6 110.541 370.368 112.504C371.179 114.424 372.416 115.96 374.08 117.112C375.744 118.221 377.856 118.776 380.416 118.776C383.104 118.776 385.28 118.179 386.944 116.984C388.651 115.789 389.675 114.403 390.016 112.824H395.776C395.307 115.171 394.368 117.197 392.96 118.904C391.552 120.611 389.781 121.912 387.648 122.808C385.515 123.704 383.104 124.152 380.416 124.152ZM5.784 198V151.28H12.056V198H5.784ZM10.776 198V192.368H33.432V198H10.776ZM10.776 177.072V171.44H31.448V177.072H10.776ZM10.776 156.912V151.28H32.792V156.912H10.776ZM68.689 210.8V187.824L71.121 182.96C70.993 186.672 70.2463 189.723 68.881 192.112C67.5157 194.501 65.745 196.272 63.569 197.424C61.4357 198.576 59.089 199.152 56.529 199.152C54.097 199.152 51.857 198.683 49.809 197.744C47.8037 196.805 46.0543 195.504 44.561 193.84C43.1103 192.176 41.9797 190.277 41.169 188.144C40.3583 185.968 39.953 183.664 39.953 181.232V180.08C39.953 177.648 40.3583 175.387 41.169 173.296C41.9797 171.205 43.1317 169.371 44.625 167.792C46.1183 166.171 47.889 164.912 49.937 164.016C51.985 163.12 54.2677 162.672 56.785 162.672C59.6863 162.672 62.225 163.291 64.401 164.528C66.6197 165.765 68.369 167.557 69.649 169.904C70.929 172.251 71.633 175.109 71.761 178.48H69.969V163.824H74.833V210.8H68.689ZM57.617 193.52C59.7077 193.52 61.6063 193.051 63.313 192.112C65.0197 191.173 66.385 189.829 67.409 188.08C68.433 186.288 68.945 184.197 68.945 181.808V178.864C68.945 176.517 68.4117 174.533 67.345 172.912C66.321 171.248 64.9343 169.989 63.185 169.136C61.4783 168.24 59.6223 167.792 57.617 167.792C55.313 167.792 53.2863 168.325 51.537 169.392C49.8303 170.459 48.4863 171.973 47.505 173.936C46.5663 175.856 46.097 178.096 46.097 180.656C46.097 183.216 46.5877 185.477 47.569 187.44C48.5503 189.36 49.9157 190.853 51.665 191.92C53.4143 192.987 55.3983 193.52 57.617 193.52ZM98.478 199.024C94.4247 199.024 91.31 197.701 89.134 195.056C86.958 192.411 85.87 188.592 85.87 183.6V163.76H92.014V184.816C92.014 187.504 92.7393 189.616 94.19 191.152C95.6407 192.645 97.6033 193.392 100.078 193.392C102.638 193.392 104.729 192.581 106.35 190.96C107.971 189.296 108.782 187.035 108.782 184.176V163.76H114.926V198H110.062V183.344H110.83C110.83 186.715 110.382 189.573 109.486 191.92C108.59 194.224 107.246 195.995 105.454 197.232C103.705 198.427 101.465 199.024 98.734 199.024H98.478ZM128.49 198V163.824H134.634V198H128.49ZM123.242 168.688V163.824H134.634V168.688H123.242ZM130.218 158.32C128.852 158.32 127.828 157.957 127.146 157.232C126.506 156.507 126.186 155.589 126.186 154.48C126.186 153.371 126.506 152.453 127.146 151.728C127.828 151.003 128.852 150.64 130.218 150.64C131.583 150.64 132.586 151.003 133.226 151.728C133.908 152.453 134.25 153.371 134.25 154.48C134.25 155.589 133.908 156.507 133.226 157.232C132.586 157.957 131.583 158.32 130.218 158.32ZM159.825 198.384C157.265 198.384 155.046 198.021 153.169 197.296C151.334 196.571 149.905 195.333 148.881 193.584C147.9 191.792 147.409 189.381 147.409 186.352V153.456H153.297V187.12C153.297 188.955 153.788 190.384 154.769 191.408C155.793 192.389 157.222 192.88 159.057 192.88H165.073V198.384H159.825ZM141.521 168.432V163.824H165.073V168.432H141.521ZM171.459 211.312V205.808H176.387C177.838 205.808 179.054 205.616 180.035 205.232C181.059 204.891 181.891 204.293 182.531 203.44C183.214 202.587 183.768 201.456 184.195 200.048L194.947 163.824H200.963L189.571 201.648C188.888 203.909 187.928 205.744 186.691 207.152C185.454 208.603 183.939 209.648 182.147 210.288C180.398 210.971 178.35 211.312 176.003 211.312H171.459ZM181.891 197.232V192.112H189.315V197.232H181.891ZM181.251 197.232L169.027 163.824H175.299L187.011 197.232H181.251Z" fill="black"/>
</svg>
