<svg width="214" height="210" viewBox="0 0 214 210" fill="none" xmlns="http://www.w3.org/2000/svg">
<path d="M114.79 208.315C96.9881 213.994 78.4413 198.475 76.704 176.426C76.0645 168.347 77.6776 152.929 80.1308 143.717L81.8108 137.4L69.4781 131.032C35.7539 113.62 8.49208 87.7644 2.47843 67.4669C-1.37794 54.4582 2.35433 40.2955 11.7184 32.4397C18.1712 27.0338 24.2039 25.1609 33.8162 25.5962C46.0058 26.1429 50.559 29.0585 62.2999 43.8286C67.4544 50.3177 78.6513 62.4659 87.1658 70.8278C95.6899 79.1797 103.546 87.2785 104.634 88.8273L106.6 91.6417L124.202 74.2698C133.881 64.7234 144.572 53.3548 147.98 49.0219C163.549 29.1597 169.171 25.4444 183.68 25.4444C190.62 25.4444 192.338 25.8291 197.483 28.5624C214.827 37.7545 218.922 60.016 206.809 79.3619C195.45 97.5133 170.278 118.57 144.715 131.305C135.6 135.851 132.841 137.663 133.27 138.817C133.585 139.657 134.702 144.446 135.752 149.457C137.976 160.016 138.358 175.373 136.592 183.168C134.034 194.486 124.823 205.116 114.79 208.315ZM125.653 120.99C127.705 125.231 129.414 128.694 129.462 128.704C130.75 128.775 144.381 121.911 151.903 117.396C174.163 104.053 196.089 83.2392 202.551 69.3296C207.916 57.7585 206.332 47.4123 197.998 39.6476C192.586 34.6061 188.644 33.2293 181.246 33.7861C171.968 34.4948 168.131 37.3091 156.208 52.1804C150.653 59.0948 144.925 65.7459 143.475 66.9506C142.024 68.1553 134.32 75.7175 126.34 83.7656L111.841 98.3839L116.89 105.835C119.659 109.935 123.61 116.758 125.653 120.99ZM79.2717 126.244C82.1545 127.499 84.5695 128.451 84.6363 128.359C84.7031 128.268 86.784 124.32 89.2754 119.593C91.7572 114.865 95.499 108.173 97.5799 104.731C101.245 98.6775 101.312 98.4041 99.7945 95.934C98.9259 94.537 91.4899 86.8128 83.2617 78.7748C68.1131 63.9743 61.059 56.3614 51.6662 44.7498C45.6908 37.3496 39.1999 33.5634 32.4989 33.5634C25.1107 33.5533 20.9394 35.3957 15.6512 40.994C10.1434 46.8251 8.12935 52.393 8.90253 59.6414C11.0025 79.372 44.574 111.15 79.2717 126.244ZM120.46 64.0856C111.173 68.8538 96.7209 67.2239 88.3495 60.4513C80.1977 53.8508 76.1217 45.1244 76.0454 34.0493C75.9976 27.3678 76.4176 24.9585 78.4699 20.2612C81.8395 12.5674 86.9367 6.83748 93.4372 3.45624C98.1336 1.00637 99.9663 0.641933 107.431 0.652057C117.826 0.652057 122.79 2.70711 129.414 9.72266C139.389 20.3118 141.823 34.9402 135.771 47.9792C132.373 55.3086 127.429 60.5019 120.46 64.0856ZM98.7731 198.171C110.104 203.769 121.262 198.556 127.19 184.889C129.109 180.465 129.366 178.359 129.261 168.185C129.175 159.833 128.574 154.275 127.114 148.525C125.997 144.122 124.918 140.325 124.699 140.103C124.489 139.88 121.692 140.244 118.475 140.923C112.853 142.087 98.2577 141.733 92.5017 140.285C90.1727 139.698 89.8767 140.012 88.5117 144.547C84.684 157.323 83.7486 175.069 86.4595 183.502C88.5118 189.89 93.1127 195.377 98.7731 198.171ZM99.9186 57.4244C104.395 59.196 113.091 58.7101 117.186 56.4728C139.914 44.0007 132.726 9.24686 107.412 9.24686C96.9786 9.24686 90.5545 13.4076 86.3163 22.9135C80.4077 36.1651 86.7363 52.2209 99.9186 57.4244ZM95.6804 131.893C98.5822 132.763 114.495 132.925 118.246 132.125L121.195 131.508L118.723 126.304C116.136 120.858 108.118 107.697 106.887 106.898C105.77 106.159 93.6949 127.458 93.5231 130.465C93.4945 130.89 94.4681 131.528 95.6804 131.893Z" fill="#010201"/>
<path d="M125.653 120.99C123.61 116.758 119.659 109.935 116.89 105.835L111.841 98.384L126.34 83.7657C134.32 75.7175 142.024 68.1553 143.475 66.9506C144.925 65.7459 150.653 59.0948 156.208 52.1805C168.13 37.3092 171.968 34.4948 181.246 33.7862C188.644 33.2294 192.586 34.6062 197.998 39.6477C206.331 47.4124 207.916 57.7585 202.551 69.3297C196.089 83.2393 174.163 104.053 151.903 117.396C144.381 121.911 130.75 128.775 129.462 128.704C129.414 128.694 127.705 125.231 125.653 120.99ZM95.6804 131.893C94.4681 131.528 93.4944 130.89 93.5231 130.465C93.6949 127.459 105.77 106.159 106.887 106.898C108.118 107.698 116.136 120.858 118.723 126.304L121.195 131.508L118.246 132.125C114.494 132.925 98.5822 132.763 95.6804 131.893Z" fill="#577FC8"/>
<path d="M98.7731 198.171C93.1126 195.377 88.5117 189.89 86.4594 183.502C83.7485 175.069 84.684 157.323 88.5117 144.547C89.8767 140.012 90.1726 139.698 92.5017 140.285C98.2576 141.733 112.853 142.087 118.475 140.923C121.692 140.245 124.489 139.88 124.699 140.103C124.918 140.326 125.997 144.122 127.114 148.525C128.574 154.276 129.175 159.833 129.261 168.185C129.366 178.359 129.109 180.465 127.19 184.889C121.262 198.556 110.104 203.769 98.7731 198.171ZM79.2717 126.244C44.5739 111.15 11.0025 79.3722 8.90249 59.6416C8.12931 52.3932 10.1434 46.8252 15.6511 40.9941C20.9393 35.3959 25.1107 33.5534 32.4989 33.5635C39.1998 33.5635 45.6907 37.3497 51.6662 44.75C61.0589 56.3616 68.113 63.9744 83.2617 78.7749C91.4899 86.8129 98.9258 94.5371 99.7945 95.9342C101.312 98.4043 101.245 98.6776 97.5799 104.731C95.499 108.173 91.7572 114.865 89.2754 119.593C86.784 124.32 84.7031 128.268 84.6363 128.36C84.5694 128.451 82.1544 127.499 79.2717 126.244Z" fill="#F28169"/>
</svg>
