<?xml version="1.0" encoding="UTF-8"?>
<svg id="Layer_1" data-name="Layer 1" xmlns="http://www.w3.org/2000/svg" viewBox="0 0 400 170">
  <defs>
    <style>
      .cls-1 {
        fill: #9b8ce3;
      }

      .cls-2 {
        fill: #2e2e38;
      }

      .cls-3 {
        fill: #3fb8ac;
      }

      .cls-4 {
        fill: #f4b740;
      }

      .cls-5 {
        fill: #e63946;
      }
    </style>
  </defs>
  <g>
    <path class="cls-2" d="M137.17,135.05h-5.08l-.94,2.59h-1.6l4.21-11.58h1.75l4.19,11.58h-1.6l-.94-2.59ZM136.74,133.81l-2.11-5.88-2.11,5.88h4.21Z"/>
    <path class="cls-2" d="M142.87,125.27v12.36h-1.52v-12.36h1.52Z"/>
    <path class="cls-2" d="M146.89,125.27v12.36h-1.52v-12.36h1.52Z"/>
    <path class="cls-2" d="M149.45,126.7c-.2-.2-.3-.45-.3-.74s.1-.53.3-.73c.2-.2.45-.3.73-.3s.52.1.71.3c.2.2.29.45.29.73s-.1.53-.29.74c-.19.2-.43.3-.71.3s-.53-.1-.73-.3ZM150.92,128.48v9.16h-1.52v-9.16h1.52Z"/>
    <path class="cls-2" d="M153.44,130.56c.38-.71.9-1.26,1.56-1.65.66-.39,1.4-.58,2.21-.58s1.5.17,2.09.52c.59.35,1.03.78,1.32,1.3v-1.67h1.54v9.16h-1.54v-1.7c-.3.53-.75.98-1.35,1.33-.6.35-1.29.53-2.08.53s-1.55-.2-2.21-.6c-.66-.4-1.18-.96-1.55-1.69-.38-.72-.57-1.55-.57-2.47s.19-1.76.57-2.47ZM160.2,131.24c-.28-.51-.65-.9-1.13-1.18-.47-.27-.99-.41-1.56-.41s-1.09.13-1.55.4c-.47.27-.84.66-1.12,1.17-.28.51-.42,1.11-.42,1.8s.14,1.31.42,1.83.65.91,1.12,1.19c.47.27.99.41,1.55.41s1.09-.14,1.56-.41c.47-.27.85-.67,1.13-1.19s.42-1.12.42-1.81-.14-1.29-.42-1.8Z"/>
    <path class="cls-2" d="M171.82,129.33c.69.67,1.04,1.65,1.04,2.92v5.4h-1.5v-5.18c0-.91-.23-1.61-.69-2.1-.46-.48-1.08-.73-1.87-.73s-1.44.25-1.91.75c-.47.5-.71,1.23-.71,2.19v5.06h-1.52v-9.16h1.52v1.3c.3-.47.71-.83,1.23-1.09.52-.26,1.09-.38,1.71-.38,1.11,0,2.02.34,2.71,1.01Z"/>
    <path class="cls-2" d="M175.3,130.56c.38-.71.9-1.26,1.58-1.65.67-.39,1.45-.58,2.31-.58,1.13,0,2.05.27,2.78.82.73.55,1.21,1.3,1.44,2.27h-1.64c-.16-.56-.46-1-.91-1.32-.45-.32-1.01-.48-1.68-.48-.87,0-1.57.3-2.11.89-.54.6-.8,1.44-.8,2.53s.27,1.96.8,2.56c.53.6,1.24.9,2.11.9.67,0,1.23-.16,1.67-.47s.75-.76.92-1.34h1.64c-.25.94-.73,1.68-1.47,2.25-.73.56-1.65.84-2.76.84-.87,0-1.64-.19-2.31-.58s-1.2-.94-1.58-1.65c-.38-.71-.57-1.55-.57-2.51s.19-1.77.57-2.48Z"/>
    <path class="cls-2" d="M193.66,133.63h-7.32c.06.9.36,1.61.93,2.11.56.51,1.25.76,2.05.76.66,0,1.21-.15,1.65-.46.44-.31.75-.72.93-1.23h1.64c-.25.88-.73,1.6-1.47,2.15-.74.55-1.65.83-2.74.83-.87,0-1.65-.19-2.33-.58s-1.22-.94-1.61-1.66c-.39-.72-.58-1.55-.58-2.5s.19-1.78.57-2.49c.38-.71.91-1.26,1.6-1.65s1.47-.58,2.36-.58,1.64.19,2.3.57c.67.38,1.18.9,1.55,1.56s.54,1.41.54,2.25c0,.29-.02.6-.05.92ZM191.76,130.9c-.26-.42-.61-.73-1.04-.95-.44-.22-.93-.33-1.46-.33-.77,0-1.42.25-1.96.74-.54.49-.85,1.17-.93,2.04h5.78c0-.58-.13-1.08-.38-1.5Z"/>
    <path class="cls-2" d="M206.76,125.99v1.24h-5.06v3.93h4.11v1.24h-4.11v5.25h-1.52v-11.65h6.58Z"/>
    <path class="cls-2" d="M209.87,137.2c-.7-.39-1.24-.94-1.64-1.66s-.59-1.55-.59-2.5.2-1.76.61-2.48c.41-.72.96-1.27,1.66-1.65.7-.38,1.49-.58,2.36-.58s1.65.19,2.36.58,1.26.93,1.66,1.65c.41.71.61,1.54.61,2.49s-.21,1.78-.63,2.5-.98,1.27-1.7,1.66c-.71.39-1.5.58-2.37.58s-1.63-.19-2.33-.58ZM213.74,136.07c.48-.26.87-.64,1.16-1.15.29-.51.44-1.14.44-1.87s-.14-1.36-.43-1.87c-.29-.51-.67-.89-1.14-1.14-.47-.25-.97-.38-1.52-.38s-1.07.13-1.53.38c-.46.25-.83.63-1.11,1.14s-.42,1.14-.42,1.87.14,1.38.41,1.89.64.89,1.09,1.14.96.38,1.5.38,1.06-.13,1.54-.38Z"/>
    <path class="cls-2" d="M221.51,128.75c.5-.29,1.1-.43,1.81-.43v1.57h-.4c-1.7,0-2.56.92-2.56,2.77v4.98h-1.52v-9.16h1.52v1.49c.27-.52.65-.93,1.14-1.22Z"/>
    <path class="cls-2" d="M229.74,128.74c.51-.91,1.21-1.62,2.1-2.13.89-.51,1.87-.77,2.95-.77,1.27,0,2.38.31,3.32.92s1.64,1.48,2.07,2.61h-1.82c-.32-.7-.79-1.24-1.4-1.62s-1.33-.57-2.18-.57-1.54.19-2.19.57c-.65.38-1.15.92-1.52,1.61-.37.7-.55,1.51-.55,2.45s.18,1.74.55,2.43c.37.7.87,1.23,1.52,1.61.65.38,1.38.57,2.19.57s1.57-.19,2.18-.56,1.07-.91,1.4-1.61h1.82c-.43,1.11-1.13,1.97-2.07,2.58s-2.06.91-3.32.91c-1.08,0-2.06-.25-2.95-.76-.88-.51-1.58-1.21-2.1-2.11-.51-.9-.77-1.92-.77-3.06s.26-2.16.77-3.07Z"/>
    <path class="cls-2" d="M242.29,130.56c.38-.71.9-1.26,1.56-1.65.66-.39,1.4-.58,2.21-.58s1.5.17,2.09.52c.59.35,1.03.78,1.32,1.3v-1.67h1.54v9.16h-1.54v-1.7c-.3.53-.75.98-1.35,1.33-.6.35-1.29.53-2.08.53s-1.55-.2-2.21-.6c-.66-.4-1.18-.96-1.55-1.69-.38-.72-.57-1.55-.57-2.47s.19-1.76.57-2.47ZM249.05,131.24c-.28-.51-.65-.9-1.13-1.18-.47-.27-.99-.41-1.56-.41s-1.09.13-1.55.4c-.47.27-.84.66-1.12,1.17-.28.51-.42,1.11-.42,1.8s.14,1.31.42,1.83.65.91,1.12,1.19c.47.27.99.41,1.55.41s1.09-.14,1.56-.41c.47-.27.85-.67,1.13-1.19s.42-1.12.42-1.81-.14-1.29-.42-1.8Z"/>
    <path class="cls-2" d="M260.67,129.33c.69.67,1.04,1.65,1.04,2.92v5.4h-1.5v-5.18c0-.91-.23-1.61-.69-2.1-.46-.48-1.08-.73-1.87-.73s-1.44.25-1.91.75c-.47.5-.71,1.23-.71,2.19v5.06h-1.52v-9.16h1.52v1.3c.3-.47.71-.83,1.23-1.09.52-.26,1.09-.38,1.71-.38,1.11,0,2.02.34,2.71,1.01Z"/>
    <path class="cls-2" d="M264.15,130.56c.38-.71.9-1.26,1.58-1.65.67-.39,1.45-.58,2.31-.58,1.13,0,2.05.27,2.78.82.73.55,1.21,1.3,1.44,2.27h-1.64c-.16-.56-.46-1-.91-1.32-.45-.32-1.01-.48-1.68-.48-.87,0-1.57.3-2.11.89-.54.6-.8,1.44-.8,2.53s.27,1.96.8,2.56c.53.6,1.24.9,2.11.9.67,0,1.23-.16,1.67-.47s.75-.76.92-1.34h1.64c-.25.94-.73,1.68-1.47,2.25-.73.56-1.65.84-2.76.84-.87,0-1.64-.19-2.31-.58s-1.2-.94-1.58-1.65c-.38-.71-.57-1.55-.57-2.51s.19-1.77.57-2.48Z"/>
    <path class="cls-2" d="M282.51,133.63h-7.32c.06.9.36,1.61.93,2.11.56.51,1.25.76,2.05.76.66,0,1.21-.15,1.65-.46.44-.31.75-.72.93-1.23h1.64c-.25.88-.73,1.6-1.47,2.15-.74.55-1.65.83-2.74.83-.87,0-1.65-.19-2.33-.58s-1.22-.94-1.61-1.66c-.39-.72-.58-1.55-.58-2.5s.19-1.78.57-2.49c.38-.71.91-1.26,1.6-1.65s1.47-.58,2.36-.58,1.64.19,2.3.57c.67.38,1.18.9,1.55,1.56s.54,1.41.54,2.25c0,.29-.02.6-.05.92ZM280.61,130.9c-.26-.42-.61-.73-1.04-.95-.44-.22-.93-.33-1.46-.33-.77,0-1.42.25-1.96.74-.54.49-.85,1.17-.93,2.04h5.78c0-.58-.13-1.08-.38-1.5Z"/>
    <path class="cls-2" d="M287.18,128.75c.5-.29,1.1-.43,1.81-.43v1.57h-.4c-1.7,0-2.56.92-2.56,2.77v4.98h-1.52v-9.16h1.52v1.49c.27-.52.65-.93,1.14-1.22Z"/>
    <path class="cls-2" d="M290.98,128.74c.51-.91,1.21-1.62,2.1-2.13.89-.51,1.87-.77,2.95-.77,1.27,0,2.38.31,3.32.92.95.61,1.64,1.48,2.07,2.61h-1.82c-.32-.7-.79-1.24-1.4-1.62s-1.33-.57-2.18-.57-1.54.19-2.19.57c-.65.38-1.15.92-1.52,1.61-.37.7-.55,1.51-.55,2.45s.18,1.74.55,2.43c.37.7.87,1.23,1.52,1.61.65.38,1.38.57,2.19.57s1.57-.19,2.18-.56,1.07-.91,1.4-1.61h1.82c-.43,1.11-1.13,1.97-2.07,2.58s-2.06.91-3.32.91c-1.08,0-2.06-.25-2.95-.76-.88-.51-1.58-1.21-2.1-2.11-.51-.9-.77-1.92-.77-3.06s.26-2.16.77-3.07Z"/>
    <path class="cls-2" d="M303.52,130.56c.38-.71.9-1.26,1.56-1.65.66-.39,1.4-.58,2.21-.58s1.5.17,2.09.52c.59.35,1.03.78,1.32,1.3v-1.67h1.54v9.16h-1.54v-1.7c-.3.53-.75.98-1.35,1.33-.6.35-1.29.53-2.08.53s-1.55-.2-2.21-.6c-.66-.4-1.18-.96-1.55-1.69-.38-.72-.57-1.55-.57-2.47s.19-1.76.57-2.47ZM310.29,131.24c-.28-.51-.65-.9-1.13-1.18-.47-.27-.99-.41-1.56-.41s-1.09.13-1.55.4c-.47.27-.84.66-1.12,1.17-.28.51-.42,1.11-.42,1.8s.14,1.31.42,1.83.65.91,1.12,1.19c.47.27.99.41,1.55.41s1.09-.14,1.56-.41c.47-.27.85-.67,1.13-1.19s.42-1.12.42-1.81-.14-1.29-.42-1.8Z"/>
    <path class="cls-2" d="M317.4,128.75c.5-.29,1.1-.43,1.81-.43v1.57h-.4c-1.7,0-2.56.92-2.56,2.77v4.98h-1.52v-9.16h1.52v1.49c.27-.52.65-.93,1.14-1.22Z"/>
    <path class="cls-2" d="M328.99,133.63h-7.32c.06.9.36,1.61.93,2.11.56.51,1.25.76,2.05.76.66,0,1.21-.15,1.65-.46.44-.31.75-.72.93-1.23h1.64c-.25.88-.73,1.6-1.47,2.15-.74.55-1.65.83-2.74.83-.87,0-1.65-.19-2.33-.58s-1.22-.94-1.61-1.66c-.39-.72-.58-1.55-.58-2.5s.19-1.78.57-2.49c.38-.71.91-1.26,1.6-1.65s1.47-.58,2.36-.58,1.64.19,2.3.57c.67.38,1.18.9,1.55,1.56s.54,1.41.54,2.25c0,.29-.02.6-.05.92ZM327.08,130.9c-.26-.42-.61-.73-1.04-.95-.44-.22-.93-.33-1.46-.33-.77,0-1.42.25-1.96.74-.54.49-.85,1.17-.93,2.04h5.78c0-.58-.13-1.08-.38-1.5Z"/>
    <path class="cls-2" d="M338.11,128.2v2.37h3.83v2.21h-3.83v2.57h4.33v2.29h-7.18v-11.73h7.18v2.29h-4.33Z"/>
    <path class="cls-2" d="M344.21,130.52c.38-.72.9-1.29,1.55-1.7.65-.41,1.36-.61,2.13-.61.59,0,1.12.1,1.59.31.47.21.85.49,1.14.86v-1.07h2.86v13.77h-2.86v-5.61c-.32.39-.72.7-1.18.94s-.99.35-1.58.35c-.76,0-1.46-.2-2.11-.6-.65-.4-1.16-.96-1.55-1.69-.38-.72-.58-1.55-.58-2.47s.19-1.75.58-2.47ZM350.33,131.72c-.2-.34-.45-.6-.76-.77-.31-.17-.64-.26-.99-.26s-.66.09-.97.26c-.31.17-.57.43-.77.78-.2.35-.3.77-.3,1.27s.1.92.3,1.26c.2.34.46.6.77.77s.64.26.97.26.66-.09.98-.26c.32-.17.57-.43.77-.78.19-.35.29-.77.29-1.27s-.1-.92-.29-1.26Z"/>
    <path class="cls-2" d="M364.72,128.32v9.32h-2.86v-1.27c-.29.41-.68.74-1.18.99-.5.25-1.04.38-1.65.38-.71,0-1.34-.16-1.89-.48-.55-.32-.97-.78-1.27-1.38s-.45-1.31-.45-2.12v-5.45h2.84v5.06c0,.62.16,1.11.48,1.45s.76.52,1.3.52,1-.17,1.32-.52.49-.83.49-1.45v-5.06h2.86Z"/>
    <path class="cls-2" d="M366.97,126.9c-.32-.29-.48-.66-.48-1.09s.16-.82.48-1.11c.32-.29.73-.44,1.23-.44s.89.15,1.21.44c.32.3.48.67.48,1.11s-.16.8-.48,1.09c-.32.3-.72.44-1.21.44s-.91-.15-1.23-.44ZM369.61,128.32v9.32h-2.86v-9.32h2.86Z"/>
    <path class="cls-2" d="M376.79,135.22v2.42h-1.45c-1.04,0-1.84-.25-2.42-.76-.58-.51-.87-1.33-.87-2.48v-3.71h-1.14v-2.37h1.14v-2.27h2.86v2.27h1.87v2.37h-1.87v3.74c0,.28.07.48.2.6.13.12.36.18.67.18h1.02Z"/>
    <path class="cls-2" d="M388.09,128.32l-5.85,13.75h-3.07l2.14-4.75-3.79-9.01h3.19l2.16,5.83,2.14-5.83h3.09Z"/>
    <g>
      <path class="cls-2" d="M151.44,28.86l-29.5,82.14h17.27l5.41-15.63h32.67l5.41,15.63h17.39l-29.5-82.14h-19.15ZM149.09,82.21l11.87-34.31,11.87,34.31h-23.74Z"/>
      <polygon class="cls-2" points="348.11 28.86 348.11 28.86 348.11 111 395.7 111 395.7 111 395.7 97.6 395.7 97.59 364.56 97.59 364.56 75.86 392.18 75.86 392.18 62.81 364.56 62.81 364.56 42.25 395.7 42.25 395.7 42.25 395.7 28.86 348.11 28.86"/>
      <path class="cls-2" d="M312.3,94.02c-3.41,2-7.35,3-11.81,3-4.78,0-9.02-1.11-12.75-3.35-2.82-1.69-5.17-3.92-7.04-6.69-1.85,5.57-4.56,10.43-8.09,14.56,2.05,1.83,4.32,3.43,6.79,4.83,6.3,3.57,13.38,5.34,21.21,5.34,9.24,0,17.3-2.33,24.15-6.99,6.86-4.66,11.66-11.19,14.39-19.56h-18.91c-1.89,3.91-4.52,6.87-7.93,8.87Z"/>
      <path class="cls-2" d="M324.7,34.97c-6.9-4.71-14.92-7.05-24.09-7.05-7.83,0-14.9,1.78-21.21,5.34-2.49,1.41-4.76,3.02-6.83,4.87-1.25,1.1-2.42,2.29-3.52,3.56-5.96,6.86-9.16,15.76-10.06,24.73-.38,3.81-.37,7.65-.8,11.45-.63,5.51-2.33,10.68-6.63,14.43-3.93,3.42-9.05,4.72-14.17,4.72-4.78,0-9.03-1.11-12.75-3.35-3.73-2.23-6.63-5.41-8.7-9.52-2.08-4.1-3.12-8.87-3.12-14.27s1.04-10.26,3.12-14.34c2.07-4.07,4.97-7.23,8.7-9.46,3.72-2.24,7.97-3.35,12.75-3.35,4.47,0,8.4.98,11.81,2.94,3.12,1.78,5.59,4.39,7.43,7.83.92-2.71,2.09-5.31,3.5-7.78,1.57-2.77,3.39-5.32,5.45-7.62-1.24-1.12-2.57-2.16-3.98-3.12-6.9-4.71-14.92-7.05-24.09-7.05-7.83,0-14.9,1.78-21.21,5.34-6.3,3.57-11.28,8.54-14.92,14.93-3.64,6.39-5.46,13.61-5.46,21.68s1.82,15.28,5.46,21.62c3.64,6.34,8.62,11.3,14.92,14.87,6.3,3.57,13.38,5.34,21.21,5.34,9.24,0,17.3-2.33,24.16-6.99,7.3-4.95,11.91-12.69,13.28-21.37.17-1.06.29-2.12.38-3.19.45-5.17.2-10.42,1.05-15.54,1.2-7.24,4.9-14.67,11.36-18.54,3.73-2.24,7.97-3.35,12.75-3.35,4.46,0,8.4.98,11.81,2.94,3.41,1.95,6.05,4.89,7.93,8.81h18.91c-2.74-8.3-7.56-14.81-14.45-19.51Z"/>
    </g>
  </g>
  <g>
    <path class="cls-4" d="M94.68,64.49c-4.85-3.92-10.24-2.07-15.04-4.02-1.46-.59-1.2-.77-1.58-2.15-1.79-6.65-1.41-13.18-7.68-17.89-2.99-2.25-11.28-4.96-14.55-2.37-4.33,3.43-1.83,9.71.86,13.34.18-.09,0,0,.86-1.18.81-1.11,2.16-2.05,3.49-2.4,1.15-.31,2.39-.17,3.41.46,2.94,1.81,3.42,5.91,3.91,9.02.51,3.27.71,7.31,2.91,9.97,6.9,8.35,14.17.83,21.38,6.64.53.43,1.79,1.54,1.86,2.16.2,1.71-2.89,4.7-3.69,6.18,2.15,2.74,9.41,2.14,10.55-1.21,1.36-4.02-3.49-13.96-6.69-16.55Z"/>
    <path class="cls-4" d="M48.35,119.79c-.81,1.11-2.16,2.05-3.49,2.4-1.15.31-2.39.17-3.41-.46-2.94-1.81-3.42-5.91-3.91-9.02-.51-3.27-.71-7.31-2.91-9.97-6.9-8.35-14.17-.83-21.38-6.64-.53-.43-1.79-1.54-1.86-2.16-.2-1.71,2.89-4.7,3.69-6.18-2.15-2.74-9.41-2.14-10.55,1.21-1.36,4.02,3.49,13.96,6.69,16.55,4.85,3.92,10.24,2.07,15.04,4.02,1.46.59,1.2.77,1.58,2.15,1.79,6.65,1.41,13.18,7.68,17.89,2.99,2.25,11.28,4.96,14.55,2.37,4.33-3.43,1.83-9.71-.86-13.34-.18.09,0,0-.86,1.18Z"/>
    <path class="cls-5" d="M19.34,81.26c-.09-.18,0,0-1.18-.86-1.11-.81-2.05-2.16-2.4-3.49-.31-1.15-.17-2.39.46-3.41,1.81-2.94,5.91-3.42,9.02-3.91,3.27-.51,7.31-.71,9.97-2.91,8.35-6.9.83-14.17,6.64-21.38.43-.53,1.54-1.79,2.16-1.86,1.71-.2,4.7,2.89,6.18,3.69,2.74-2.15,2.14-9.41-1.21-10.55-4.02-1.36-13.96,3.49-16.55,6.69-3.92,4.85-2.07,10.24-4.02,15.04-.59,1.46-.77,1.2-2.15,1.58-6.65,1.79-13.18,1.41-17.89,7.68-2.25,2.99-4.96,11.28-2.37,14.55,3.43,4.33,9.71,1.83,13.34-.86Z"/>
    <path class="cls-5" d="M86.56,88.74c.09.18,0,0,1.18.86,1.11.81,2.05,2.16,2.4,3.49.31,1.15.17,2.39-.46,3.41-1.81,2.94-5.91,3.42-9.02,3.91-3.27.51-7.31.71-9.97,2.91-8.35,6.9-.83,14.17-6.64,21.38-.43.53-1.54,1.79-2.16,1.86-1.71.2-4.7-2.89-6.18-3.69-2.74,2.15-2.14,9.41,1.21,10.55,4.02,1.36,13.96-3.49,16.55-6.69,3.92-4.85,2.07-10.24,4.02-15.04.59-1.46.77-1.2,2.15-1.58,6.65-1.79,13.18-1.41,17.89-7.68,2.25-2.99,4.96-11.28,2.37-14.55-3.43-4.33-9.71-1.83-13.34.86Z"/>
    <circle class="cls-1" cx="15.71" cy="48.01" r="7.11"/>
    <circle class="cls-3" cx="16.17" cy="121.54" r="7.11"/>
    <path class="cls-3" d="M94.51,53.25c2.77-2.77,2.77-7.27,0-10.05s-7.27-2.77-10.05,0c-2.77,2.77-2.77,7.27,0,10.05,2.78,2.77,7.27,2.77,10.05,0Z"/>
    <path class="cls-1" d="M84.92,117.22c-2.77,2.77-2.77,7.27,0,10.05,2.77,2.77,7.27,2.77,10.05,0s2.77-7.27,0-10.05c-2.77-2.77-7.27-2.77-10.05,0Z"/>
    <path class="cls-2" d="M65.06,86.37c2.36-2.88,1.94-7.13-.94-9.49-1.25-1.03-2.77-1.53-4.27-1.53-1.95,0-3.89.84-5.22,2.47l-2.21,2.7-2.21-2.7c-1.33-1.63-3.27-2.47-5.22-2.47-1.5,0-3.02.5-4.27,1.53-2.88,2.36-3.31,6.61-.94,9.49l3.93,4.79,7.34,8.96c.71.87,2.04.87,2.75,0l7.34-8.96,3.93-4.79Z"/>
  </g>
</svg>