<?xml version="1.0" encoding="UTF-8"?>
<svg id="Layer_1" data-name="Layer 1" xmlns="http://www.w3.org/2000/svg" viewBox="0 0 170 170">
  <defs>
    <style>
      .cls-1 {
        fill: #9b8ce3;
      }

      .cls-2 {
        fill: #2e2e38;
      }

      .cls-3 {
        fill: #3fb8ac;
      }

      .cls-4 {
        fill: #f4b740;
      }

      .cls-5 {
        fill: #e63946;
      }
    </style>
  </defs>
  <path class="cls-4" d="M157.9,49.17c-8.47-6.84-17.88-3.62-26.28-7.03-2.55-1.03-2.1-1.34-2.76-3.76-3.13-11.62-2.47-23.02-13.42-31.25-5.22-3.92-19.7-8.67-25.41-4.15-7.57,6-3.19,16.96,1.5,23.31.32-.16,0,0,1.51-2.06,1.42-1.94,3.77-3.57,6.09-4.2,2.02-.54,4.18-.29,5.96.8,5.14,3.15,5.98,10.33,6.83,15.76.89,5.71,1.24,12.77,5.09,17.42,12.06,14.59,24.75,1.45,37.35,11.61.93.75,3.13,2.69,3.25,3.77.35,3-5.06,8.21-6.44,10.81,3.76,4.78,16.44,3.75,18.43-2.12,2.38-7.02-6.09-24.39-11.69-28.91Z"/>
  <path class="cls-4" d="M76.96,145.78c-1.42,1.94-3.77,3.57-6.09,4.2-2.02.54-4.18.29-5.96-.8-5.14-3.15-5.98-10.33-6.83-15.76-.89-5.71-1.24-12.77-5.09-17.42-12.06-14.59-24.75-1.45-37.35-11.61-.93-.75-3.13-2.69-3.25-3.77-.35-3,5.05-8.21,6.44-10.81-3.76-4.78-16.44-3.75-18.43,2.12-2.38,7.02,6.09,24.39,11.69,28.91,8.47,6.84,17.88,3.62,26.28,7.03,2.55,1.03,2.1,1.34,2.76,3.76,3.13,11.62,2.47,23.02,13.42,31.25,5.22,3.92,19.7,8.67,25.41,4.15,7.57-6,3.19-16.96-1.5-23.31-.32.16,0,0-1.51,2.06Z"/>
  <path class="cls-5" d="M26.28,78.47c-.16-.32,0,0-2.06-1.51-1.94-1.42-3.57-3.77-4.2-6.09-.54-2.02-.29-4.18.8-5.96,3.15-5.14,10.33-5.98,15.76-6.83,5.71-.89,12.77-1.24,17.42-5.09,14.59-12.06,1.45-24.75,11.6-37.35.75-.93,2.69-3.13,3.77-3.25,3-.35,8.21,5.05,10.81,6.44,4.78-3.76,3.75-16.44-2.12-18.43-7.02-2.38-24.39,6.09-28.91,11.69-6.84,8.47-3.62,17.88-7.03,26.28-1.03,2.55-1.34,2.1-3.76,2.76-11.62,3.13-23.02,2.47-31.25,13.42-3.92,5.22-8.67,19.7-4.15,25.41,6,7.57,16.96,3.19,23.31-1.5Z"/>
  <path class="cls-5" d="M143.72,91.53c.16.32,0,0,2.06,1.51,1.94,1.42,3.57,3.77,4.2,6.09.54,2.02.29,4.18-.8,5.96-3.15,5.14-10.33,5.98-15.76,6.83-5.71.89-12.77,1.24-17.42,5.09-14.59,12.06-1.45,24.75-11.61,37.35-.75.93-2.69,3.13-3.77,3.25-3,.35-8.21-5.05-10.81-6.44-4.78,3.76-3.75,16.44,2.12,18.43,7.02,2.38,24.39-6.09,28.91-11.69,6.84-8.47,3.62-17.88,7.03-26.28,1.03-2.55,1.34-2.1,3.76-2.76,11.62-3.13,23.02-2.47,31.25-13.42,3.92-5.22,8.67-19.7,4.15-25.41-6-7.57-16.96-3.19-23.31,1.5Z"/>
  <circle class="cls-1" cx="19.93" cy="20.37" r="12.41"/>
  <circle class="cls-3" cx="20.75" cy="148.83" r="12.41"/>
  <path class="cls-3" d="M157.61,29.53c4.85-4.85,4.85-12.71,0-17.56-4.85-4.85-12.71-4.85-17.56,0-4.85,4.85-4.85,12.71,0,17.56,4.85,4.85,12.71,4.85,17.56,0Z"/>
  <path class="cls-1" d="M140.85,141.29c-4.85,4.85-4.85,12.71,0,17.56,4.85,4.85,12.71,4.85,17.56,0,4.85-4.85,4.85-12.71,0-17.56-4.85-4.85-12.71-4.85-17.56,0Z"/>
  <path class="cls-2" d="M106.15,87.39c4.12-5.03,3.38-12.46-1.65-16.58-2.19-1.8-4.83-2.67-7.46-2.67-3.41,0-6.79,1.47-9.12,4.32l-3.86,4.71-3.86-4.71c-2.33-2.84-5.71-4.32-9.12-4.32-2.63,0-5.27.87-7.46,2.67-5.03,4.12-5.77,11.55-1.65,16.58l6.86,8.37,12.83,15.66c1.24,1.52,3.56,1.52,4.81,0l12.83-15.66,6.86-8.37Z"/>
</svg>