<svg width="673" height="246" viewBox="0 0 673 246" fill="none" xmlns="http://www.w3.org/2000/svg">
<path d="M114.79 219.315C96.9881 224.994 78.4413 209.475 76.704 187.426C76.0645 179.347 77.6776 163.929 80.1308 154.717L81.8108 148.4L69.4781 142.032C35.7539 124.62 8.49208 98.7644 2.47843 78.4669C-1.37794 65.4582 2.35433 51.2955 11.7184 43.4397C18.1712 38.0338 24.2039 36.1609 33.8162 36.5962C46.0058 37.1429 50.559 40.0585 62.2999 54.8286C67.4544 61.3177 78.6513 73.4659 87.1658 81.8278C95.6899 90.1797 103.546 98.2785 104.634 99.8273L106.6 102.642L124.202 85.2698C133.881 75.7234 144.572 64.3548 147.98 60.0219C163.549 40.1597 169.171 36.4444 183.68 36.4444C190.62 36.4444 192.338 36.8291 197.483 39.5624C214.827 48.7545 218.922 71.016 206.809 90.3619C195.45 108.513 170.278 129.57 144.715 142.305C135.6 146.851 132.841 148.663 133.27 149.817C133.585 150.657 134.702 155.446 135.752 160.457C137.976 171.016 138.358 186.373 136.592 194.168C134.034 205.486 124.823 216.116 114.79 219.315ZM125.653 131.99C127.705 136.231 129.414 139.694 129.462 139.704C130.75 139.775 144.381 132.911 151.903 128.396C174.163 115.053 196.089 94.2392 202.551 80.3296C207.916 68.7585 206.332 58.4123 197.998 50.6476C192.586 45.6061 188.644 44.2293 181.246 44.7861C171.968 45.4948 168.131 48.3091 156.208 63.1804C150.653 70.0948 144.925 76.7459 143.475 77.9506C142.024 79.1553 134.32 86.7175 126.34 94.7656L111.841 109.384L116.89 116.835C119.659 120.935 123.61 127.758 125.653 131.99ZM79.2717 137.244C82.1545 138.499 84.5695 139.451 84.6363 139.359C84.7031 139.268 86.784 135.32 89.2754 130.593C91.7572 125.865 95.499 119.173 97.5799 115.731C101.245 109.677 101.312 109.404 99.7945 106.934C98.9259 105.537 91.4899 97.8128 83.2617 89.7748C68.1131 74.9743 61.059 67.3614 51.6662 55.7498C45.6908 48.3496 39.1999 44.5634 32.4989 44.5634C25.1107 44.5533 20.9394 46.3957 15.6512 51.994C10.1434 57.8251 8.12935 63.393 8.90253 70.6414C11.0025 90.372 44.574 122.15 79.2717 137.244ZM120.46 75.0856C111.173 79.8538 96.7209 78.2239 88.3495 71.4513C80.1977 64.8508 76.1217 56.1244 76.0454 45.0493C75.9976 38.3678 76.4176 35.9585 78.4699 31.2612C81.8395 23.5674 86.9367 17.8375 93.4372 14.4562C98.1336 12.0064 99.9663 11.6419 107.431 11.6521C117.826 11.6521 122.79 13.7071 129.414 20.7227C139.389 31.3118 141.823 45.9402 135.771 58.9792C132.373 66.3086 127.429 71.5019 120.46 75.0856ZM98.7731 209.171C110.104 214.769 121.262 209.556 127.19 195.889C129.109 191.465 129.366 189.359 129.261 179.185C129.175 170.833 128.574 165.275 127.114 159.525C125.997 155.122 124.918 151.325 124.699 151.103C124.489 150.88 121.692 151.244 118.475 151.923C112.853 153.087 98.2577 152.733 92.5017 151.285C90.1727 150.698 89.8767 151.012 88.5117 155.547C84.684 168.323 83.7486 186.069 86.4595 194.502C88.5118 200.89 93.1127 206.377 98.7731 209.171ZM99.9186 68.4244C104.395 70.196 113.091 69.7101 117.186 67.4728C139.914 55.0007 132.726 20.2469 107.412 20.2469C96.9786 20.2469 90.5545 24.4076 86.3163 33.9135C80.4077 47.1651 86.7363 63.2209 99.9186 68.4244ZM95.6804 142.893C98.5822 143.763 114.495 143.925 118.246 143.125L121.195 142.508L118.723 137.304C116.136 131.858 108.118 118.697 106.887 117.898C105.77 117.159 93.6949 138.458 93.5231 141.465C93.4945 141.89 94.4681 142.528 95.6804 142.893Z" fill="#010201"/>
<path d="M125.653 131.99C123.61 127.758 119.659 120.935 116.89 116.835L111.841 109.384L126.34 94.7657C134.32 86.7175 142.024 79.1553 143.475 77.9506C144.925 76.7459 150.653 70.0948 156.208 63.1805C168.13 48.3092 171.968 45.4948 181.246 44.7862C188.644 44.2294 192.586 45.6062 197.998 50.6477C206.331 58.4124 207.916 68.7585 202.551 80.3297C196.089 94.2393 174.163 115.053 151.903 128.396C144.381 132.911 130.75 139.775 129.462 139.704C129.414 139.694 127.705 136.231 125.653 131.99ZM95.6804 142.893C94.4681 142.528 93.4944 141.89 93.5231 141.465C93.6949 138.459 105.77 117.159 106.887 117.898C108.118 118.698 116.136 131.858 118.723 137.304L121.195 142.508L118.246 143.125C114.494 143.925 98.5822 143.763 95.6804 142.893Z" fill="#577FC8"/>
<path d="M98.7731 209.171C93.1126 206.377 88.5117 200.89 86.4594 194.502C83.7485 186.069 84.684 168.323 88.5117 155.547C89.8767 151.012 90.1726 150.698 92.5017 151.285C98.2576 152.733 112.853 153.087 118.475 151.923C121.692 151.245 124.489 150.88 124.699 151.103C124.918 151.326 125.997 155.122 127.114 159.525C128.574 165.276 129.175 170.833 129.261 179.185C129.366 189.359 129.109 191.465 127.19 195.889C121.262 209.556 110.104 214.769 98.7731 209.171ZM79.2717 137.244C44.5739 122.15 11.0025 90.3722 8.90249 70.6416C8.12931 63.3932 10.1434 57.8252 15.6511 51.9941C20.9393 46.3959 25.1107 44.5534 32.4989 44.5635C39.1998 44.5635 45.6907 48.3497 51.6662 55.75C61.0589 67.3616 68.113 74.9744 83.2617 89.7749C91.4899 97.8129 98.9258 105.537 99.7945 106.934C101.312 109.404 101.245 109.678 97.5799 115.731C95.499 119.173 91.7572 125.865 89.2754 130.593C86.784 135.32 84.7031 139.268 84.6363 139.36C84.5694 139.451 82.1544 138.499 79.2717 137.244Z" fill="#F28169"/>
<path d="M245.792 59L262.624 12.28H273.248L290.592 59H284.128L268.448 16.376L271.52 17.912H263.968L267.232 16.376L252.064 59H245.792ZM255.84 45.048L257.952 39.416H278.112L280.224 45.048H255.84ZM298.272 59V12.28H304.416V59H298.272ZM293.536 17.144V12.28H304.416V17.144H293.536ZM316.585 59V12.28H322.729V59H316.585ZM311.849 17.144V12.28H322.729V17.144H311.849ZM336.177 59V24.824H342.321V59H336.177ZM330.929 29.688V24.824H342.321V29.688H330.929ZM337.905 19.32C336.54 19.32 335.516 18.9573 334.833 18.232C334.193 17.5067 333.873 16.5893 333.873 15.48C333.873 14.3707 334.193 13.4533 334.833 12.728C335.516 12.0027 336.54 11.64 337.905 11.64C339.27 11.64 340.273 12.0027 340.913 12.728C341.596 13.4533 341.937 14.3707 341.937 15.48C341.937 16.5893 341.596 17.5067 340.913 18.232C340.273 18.9573 339.27 19.32 337.905 19.32ZM374.873 59V48.76H373.849V36.92C373.849 34.5733 373.23 32.8027 371.993 31.608C370.798 30.4133 369.027 29.816 366.681 29.816C365.358 29.816 363.993 29.8373 362.585 29.88C361.177 29.9227 359.833 29.9653 358.553 30.008C357.273 30.0507 356.163 30.1147 355.225 30.2V24.824C356.163 24.7387 357.145 24.6747 358.169 24.632C359.235 24.5467 360.323 24.504 361.433 24.504C362.542 24.4613 363.609 24.44 364.633 24.44C368.131 24.44 370.99 24.8667 373.209 25.72C375.427 26.5307 377.07 27.8747 378.137 29.752C379.203 31.6293 379.737 34.168 379.737 37.368V59H374.873ZM363.673 59.896C361.113 59.896 358.894 59.4693 357.017 58.616C355.182 57.72 353.753 56.44 352.729 54.776C351.747 53.112 351.257 51.1067 351.257 48.76C351.257 46.328 351.79 44.3013 352.857 42.68C353.966 41.0587 355.566 39.8427 357.657 39.032C359.747 38.1787 362.265 37.752 365.208 37.752H374.489V42.36H364.953C362.478 42.36 360.579 42.9573 359.257 44.152C357.934 45.3467 357.273 46.8827 357.273 48.76C357.273 50.6373 357.934 52.152 359.257 53.304C360.579 54.456 362.478 55.032 364.953 55.032C366.403 55.032 367.79 54.776 369.113 54.264C370.435 53.7093 371.523 52.8133 372.377 51.576C373.273 50.296 373.763 48.5467 373.849 46.328L375.513 48.76C375.299 51.192 374.702 53.24 373.721 54.904C372.782 56.5253 371.459 57.7627 369.753 58.616C368.089 59.4693 366.062 59.896 363.673 59.896ZM391.013 59V24.824H395.877V39.48H395.109C395.109 36.1093 395.557 33.272 396.453 30.968C397.392 28.6213 398.8 26.8507 400.677 25.656C402.554 24.4187 404.922 23.8 407.781 23.8H408.037C412.346 23.8 415.525 25.144 417.573 27.832C419.664 30.52 420.709 34.4027 420.709 39.48V59H414.565V38.2C414.565 35.5547 413.818 33.4427 412.325 31.864C410.832 30.2427 408.784 29.432 406.181 29.432C403.493 29.432 401.317 30.264 399.653 31.928C397.989 33.592 397.157 35.8107 397.157 38.584V59H391.013ZM446.607 60.152C443.663 60.152 441.103 59.64 438.927 58.616C436.793 57.592 435.023 56.2267 433.615 54.52C432.207 52.7707 431.14 50.8507 430.415 48.76C429.732 46.6693 429.391 44.5787 429.391 42.488V41.336C429.391 39.16 429.732 37.0267 430.415 34.936C431.14 32.8453 432.207 30.968 433.615 29.304C435.065 27.5973 436.857 26.232 438.991 25.208C441.124 24.184 443.62 23.672 446.479 23.672C449.337 23.672 451.897 24.2053 454.159 25.272C456.463 26.3387 458.297 27.8533 459.663 29.816C461.071 31.736 461.86 34.0187 462.031 36.664H456.143C455.844 34.5307 454.863 32.76 453.199 31.352C451.535 29.9013 449.295 29.176 446.479 29.176C444.047 29.176 442.02 29.7307 440.399 30.84C438.777 31.9493 437.561 33.464 436.751 35.384C435.94 37.304 435.535 39.48 435.535 41.912C435.535 44.2587 435.94 46.4133 436.751 48.376C437.561 50.296 438.777 51.832 440.399 52.984C442.063 54.0933 444.132 54.648 446.607 54.648C448.527 54.648 450.191 54.3067 451.599 53.624C453.007 52.9413 454.137 52.024 454.991 50.872C455.844 49.72 456.356 48.4187 456.527 46.968H462.415C462.287 49.656 461.497 51.9813 460.047 53.944C458.639 55.9067 456.761 57.4427 454.415 58.552C452.111 59.6187 449.508 60.152 446.607 60.152ZM485.291 60.152C482.304 60.152 479.723 59.64 477.547 58.616C475.371 57.592 473.6 56.248 472.235 54.584C470.87 52.8773 469.846 50.9787 469.163 48.888C468.523 46.7973 468.203 44.664 468.203 42.488V41.336C468.203 39.1173 468.523 36.9627 469.163 34.872C469.846 32.7813 470.87 30.904 472.235 29.24C473.6 27.5333 475.328 26.1893 477.419 25.208C479.552 24.184 482.048 23.672 484.907 23.672C488.619 23.672 491.67 24.4827 494.059 26.104C496.491 27.6827 498.283 29.7307 499.435 32.248C500.63 34.7653 501.227 37.4533 501.227 40.312V43.064H470.891V38.456H496.747L495.339 40.952C495.339 38.52 494.955 36.4293 494.187 34.68C493.419 32.888 492.267 31.5013 490.731 30.52C489.195 29.5387 487.254 29.048 484.907 29.048C482.475 29.048 480.448 29.6027 478.827 30.712C477.248 31.8213 476.054 33.336 475.243 35.256C474.475 37.176 474.091 39.3947 474.091 41.912C474.091 44.344 474.475 46.5413 475.243 48.504C476.054 50.424 477.291 51.96 478.955 53.112C480.619 54.2213 482.731 54.776 485.291 54.776C487.979 54.776 490.155 54.1787 491.819 52.984C493.526 51.7893 494.55 50.4027 494.891 48.824H500.651C500.182 51.1707 499.243 53.1973 497.835 54.904C496.427 56.6107 494.656 57.912 492.523 58.808C490.39 59.704 487.979 60.152 485.291 60.152ZM525.409 59V23.096C525.409 19.2987 526.412 16.504 528.417 14.712C530.422 12.92 533.366 12.024 537.249 12.024H541.473V17.144H536.225C534.646 17.144 533.43 17.592 532.577 18.488C531.724 19.3413 531.297 20.536 531.297 22.072V59H525.409ZM520.673 29.816V25.208H542.113V29.816H520.673ZM564.257 60.152C561.27 60.152 558.646 59.64 556.385 58.616C554.124 57.592 552.204 56.248 550.625 54.584C549.089 52.8773 547.916 50.9787 547.105 48.888C546.337 46.7973 545.953 44.664 545.953 42.488V41.336C545.953 39.16 546.358 37.0267 547.169 34.936C547.98 32.8027 549.174 30.904 550.753 29.24C552.332 27.5333 554.252 26.1893 556.513 25.208C558.774 24.184 561.356 23.672 564.257 23.672C567.158 23.672 569.74 24.184 572.001 25.208C574.262 26.1893 576.182 27.5333 577.761 29.24C579.34 30.904 580.534 32.8027 581.345 34.936C582.156 37.0267 582.561 39.16 582.561 41.336V42.488C582.561 44.664 582.156 46.7973 581.345 48.888C580.577 50.9787 579.404 52.8773 577.825 54.584C576.289 56.248 574.39 57.592 572.129 58.616C569.868 59.64 567.244 60.152 564.257 60.152ZM564.257 54.648C566.817 54.648 568.993 54.0933 570.785 52.984C572.62 51.832 574.006 50.296 574.945 48.376C575.926 46.456 576.417 44.3013 576.417 41.912C576.417 39.48 575.926 37.304 574.945 35.384C573.964 33.464 572.556 31.9493 570.721 30.84C568.929 29.7307 566.774 29.176 564.257 29.176C561.782 29.176 559.628 29.7307 557.793 30.84C555.958 31.9493 554.55 33.464 553.569 35.384C552.588 37.304 552.097 39.48 552.097 41.912C552.097 44.3013 552.566 46.456 553.505 48.376C554.486 50.296 555.873 51.832 557.665 52.984C559.5 54.0933 561.697 54.648 564.257 54.648ZM591.763 59V24.824H596.627V38.904H596.371C596.371 33.912 597.459 30.264 599.635 27.96C601.854 25.6133 605.16 24.44 609.555 24.44H610.707V29.944H608.531C605.118 29.944 602.494 30.8613 600.659 32.696C598.824 34.488 597.907 37.0907 597.907 40.504V59H591.763ZM271.072 135.152C266.805 135.152 263.157 134.405 260.128 132.912C257.141 131.419 254.731 129.477 252.896 127.088C251.061 124.699 249.717 122.117 248.864 119.344C248.011 116.528 247.584 113.819 247.584 111.216V109.808C247.584 106.992 248.011 104.176 248.864 101.36C249.76 98.544 251.125 95.984 252.96 93.68C254.795 91.376 257.184 89.52 260.128 88.112C263.072 86.704 266.592 86 270.688 86C274.869 86 278.453 86.7253 281.44 88.176C284.427 89.6267 286.795 91.6533 288.544 94.256C290.293 96.8587 291.36 99.9307 291.744 103.472H285.344C285.003 100.827 284.149 98.6507 282.784 96.944C281.419 95.1947 279.691 93.8933 277.6 93.04C275.552 92.1867 273.248 91.76 270.688 91.76C267.915 91.76 265.483 92.2507 263.392 93.232C261.301 94.1707 259.552 95.5147 258.144 97.264C256.779 98.9707 255.733 100.955 255.008 103.216C254.325 105.477 253.984 107.931 253.984 110.576C253.984 113.093 254.325 115.483 255.008 117.744C255.733 120.005 256.8 122.011 258.208 123.76C259.659 125.509 261.451 126.896 263.584 127.92C265.717 128.901 268.213 129.392 271.072 129.392C275.083 129.392 278.453 128.389 281.184 126.384C283.915 124.379 285.579 121.477 286.176 117.68H292.576C292.149 120.88 291.061 123.803 289.312 126.448C287.605 129.093 285.216 131.205 282.144 132.784C279.115 134.363 275.424 135.152 271.072 135.152ZM321.435 134V123.76H320.411V111.92C320.411 109.573 319.792 107.803 318.555 106.608C317.36 105.413 315.59 104.816 313.243 104.816C311.92 104.816 310.555 104.837 309.147 104.88C307.739 104.923 306.395 104.965 305.115 105.008C303.835 105.051 302.726 105.115 301.787 105.2V99.824C302.726 99.7387 303.707 99.6747 304.731 99.632C305.798 99.5467 306.886 99.504 307.995 99.504C309.104 99.4613 310.171 99.44 311.195 99.44C314.694 99.44 317.552 99.8667 319.771 100.72C321.99 101.531 323.632 102.875 324.699 104.752C325.766 106.629 326.299 109.168 326.299 112.368V134H321.435ZM310.235 134.896C307.675 134.896 305.456 134.469 303.579 133.616C301.744 132.72 300.315 131.44 299.291 129.776C298.31 128.112 297.819 126.107 297.819 123.76C297.819 121.328 298.352 119.301 299.419 117.68C300.528 116.059 302.128 114.843 304.219 114.032C306.31 113.179 308.827 112.752 311.771 112.752H321.051V117.36H311.515C309.04 117.36 307.142 117.957 305.819 119.152C304.496 120.347 303.835 121.883 303.835 123.76C303.835 125.637 304.496 127.152 305.819 128.304C307.142 129.456 309.04 130.032 311.515 130.032C312.966 130.032 314.352 129.776 315.675 129.264C316.998 128.709 318.086 127.813 318.939 126.576C319.835 125.296 320.326 123.547 320.411 121.328L322.075 123.76C321.862 126.192 321.264 128.24 320.283 129.904C319.344 131.525 318.022 132.763 316.315 133.616C314.651 134.469 312.624 134.896 310.235 134.896ZM337.576 134V99.824H342.44V114.48H341.672C341.672 111.109 342.12 108.272 343.016 105.968C343.954 103.621 345.362 101.851 347.24 100.656C349.117 99.4187 351.485 98.8 354.344 98.8H354.6C358.909 98.8 362.088 100.144 364.136 102.832C366.226 105.52 367.272 109.403 367.272 114.48V134H361.128V113.2C361.128 110.555 360.381 108.443 358.888 106.864C357.394 105.243 355.346 104.432 352.744 104.432C350.056 104.432 347.88 105.264 346.216 106.928C344.552 108.592 343.72 110.811 343.72 113.584V134H337.576ZM393.169 135.152C390.225 135.152 387.665 134.64 385.489 133.616C383.356 132.592 381.585 131.227 380.177 129.52C378.769 127.771 377.702 125.851 376.977 123.76C376.294 121.669 375.953 119.579 375.953 117.488V116.336C375.953 114.16 376.294 112.027 376.977 109.936C377.702 107.845 378.769 105.968 380.177 104.304C381.628 102.597 383.42 101.232 385.553 100.208C387.686 99.184 390.182 98.672 393.041 98.672C395.9 98.672 398.46 99.2053 400.721 100.272C403.025 101.339 404.86 102.853 406.225 104.816C407.633 106.736 408.422 109.019 408.593 111.664H402.705C402.406 109.531 401.425 107.76 399.761 106.352C398.097 104.901 395.857 104.176 393.041 104.176C390.609 104.176 388.582 104.731 386.961 105.84C385.34 106.949 384.124 108.464 383.313 110.384C382.502 112.304 382.097 114.48 382.097 116.912C382.097 119.259 382.502 121.413 383.313 123.376C384.124 125.296 385.34 126.832 386.961 127.984C388.625 129.093 390.694 129.648 393.169 129.648C395.089 129.648 396.753 129.307 398.161 128.624C399.569 127.941 400.7 127.024 401.553 125.872C402.406 124.72 402.918 123.419 403.089 121.968H408.977C408.849 124.656 408.06 126.981 406.609 128.944C405.201 130.907 403.324 132.443 400.977 133.552C398.673 134.619 396.07 135.152 393.169 135.152ZM431.854 135.152C428.867 135.152 426.286 134.64 424.11 133.616C421.934 132.592 420.163 131.248 418.798 129.584C417.432 127.877 416.408 125.979 415.726 123.888C415.086 121.797 414.766 119.664 414.766 117.488V116.336C414.766 114.117 415.086 111.963 415.726 109.872C416.408 107.781 417.432 105.904 418.798 104.24C420.163 102.533 421.891 101.189 423.982 100.208C426.115 99.184 428.611 98.672 431.47 98.672C435.182 98.672 438.232 99.4827 440.622 101.104C443.054 102.683 444.846 104.731 445.998 107.248C447.192 109.765 447.79 112.453 447.79 115.312V118.064H417.454V113.456H443.31L441.902 115.952C441.902 113.52 441.518 111.429 440.75 109.68C439.982 107.888 438.83 106.501 437.294 105.52C435.758 104.539 433.816 104.048 431.47 104.048C429.038 104.048 427.011 104.603 425.39 105.712C423.811 106.821 422.616 108.336 421.806 110.256C421.038 112.176 420.654 114.395 420.654 116.912C420.654 119.344 421.038 121.541 421.806 123.504C422.616 125.424 423.854 126.96 425.518 128.112C427.182 129.221 429.294 129.776 431.854 129.776C434.542 129.776 436.718 129.179 438.382 127.984C440.088 126.789 441.112 125.403 441.454 123.824H447.214C446.744 126.171 445.806 128.197 444.398 129.904C442.99 131.611 441.219 132.912 439.086 133.808C436.952 134.704 434.542 135.152 431.854 135.152ZM456.513 134V99.824H461.377V113.904H461.121C461.121 108.912 462.209 105.264 464.385 102.96C466.604 100.613 469.91 99.44 474.305 99.44H475.457V104.944H473.281C469.868 104.944 467.244 105.861 465.409 107.696C463.574 109.488 462.657 112.091 462.657 115.504V134H456.513ZM518.51 135.152C514.243 135.152 510.595 134.405 507.566 132.912C504.579 131.419 502.168 129.477 500.334 127.088C498.499 124.699 497.155 122.117 496.302 119.344C495.448 116.528 495.022 113.819 495.022 111.216V109.808C495.022 106.992 495.448 104.176 496.302 101.36C497.198 98.544 498.563 95.984 500.398 93.68C502.232 91.376 504.622 89.52 507.566 88.112C510.51 86.704 514.03 86 518.126 86C522.307 86 525.891 86.7253 528.878 88.176C531.864 89.6267 534.232 91.6533 535.982 94.256C537.731 96.8587 538.798 99.9307 539.182 103.472H532.782C532.44 100.827 531.587 98.6507 530.222 96.944C528.856 95.1947 527.128 93.8933 525.038 93.04C522.99 92.1867 520.686 91.76 518.126 91.76C515.352 91.76 512.92 92.2507 510.83 93.232C508.739 94.1707 506.99 95.5147 505.582 97.264C504.216 98.9707 503.171 100.955 502.446 103.216C501.763 105.477 501.422 107.931 501.422 110.576C501.422 113.093 501.763 115.483 502.446 117.744C503.171 120.005 504.238 122.011 505.646 123.76C507.096 125.509 508.888 126.896 511.022 127.92C513.155 128.901 515.651 129.392 518.51 129.392C522.52 129.392 525.891 128.389 528.622 126.384C531.352 124.379 533.016 121.477 533.614 117.68H540.014C539.587 120.88 538.499 123.803 536.75 126.448C535.043 129.093 532.654 131.205 529.582 132.784C526.552 134.363 522.862 135.152 518.51 135.152ZM568.873 134V123.76H567.849V111.92C567.849 109.573 567.23 107.803 565.993 106.608C564.798 105.413 563.027 104.816 560.681 104.816C559.358 104.816 557.993 104.837 556.585 104.88C555.177 104.923 553.833 104.965 552.553 105.008C551.273 105.051 550.163 105.115 549.225 105.2V99.824C550.163 99.7387 551.145 99.6747 552.169 99.632C553.235 99.5467 554.323 99.504 555.433 99.504C556.542 99.4613 557.609 99.44 558.633 99.44C562.131 99.44 564.99 99.8667 567.209 100.72C569.427 101.531 571.07 102.875 572.137 104.752C573.203 106.629 573.737 109.168 573.737 112.368V134H568.873ZM557.673 134.896C555.113 134.896 552.894 134.469 551.017 133.616C549.182 132.72 547.753 131.44 546.729 129.776C545.747 128.112 545.257 126.107 545.257 123.76C545.257 121.328 545.79 119.301 546.857 117.68C547.966 116.059 549.566 114.843 551.657 114.032C553.747 113.179 556.265 112.752 559.208 112.752H568.489V117.36H558.953C556.478 117.36 554.579 117.957 553.257 119.152C551.934 120.347 551.273 121.883 551.273 123.76C551.273 125.637 551.934 127.152 553.257 128.304C554.579 129.456 556.478 130.032 558.953 130.032C560.403 130.032 561.79 129.776 563.113 129.264C564.435 128.709 565.523 127.813 566.377 126.576C567.273 125.296 567.763 123.547 567.849 121.328L569.513 123.76C569.299 126.192 568.702 128.24 567.721 129.904C566.782 131.525 565.459 132.763 563.753 133.616C562.089 134.469 560.062 134.896 557.673 134.896ZM585.013 134V99.824H589.877V113.904H589.621C589.621 108.912 590.709 105.264 592.885 102.96C595.104 100.613 598.41 99.44 602.805 99.44H603.957V104.944H601.781C598.368 104.944 595.744 105.861 593.909 107.696C592.074 109.488 591.157 112.091 591.157 115.504V134H585.013ZM625.416 135.152C622.429 135.152 619.848 134.64 617.672 133.616C615.496 132.592 613.725 131.248 612.36 129.584C610.995 127.877 609.971 125.979 609.288 123.888C608.648 121.797 608.328 119.664 608.328 117.488V116.336C608.328 114.117 608.648 111.963 609.288 109.872C609.971 107.781 610.995 105.904 612.36 104.24C613.725 102.533 615.453 101.189 617.544 100.208C619.677 99.184 622.173 98.672 625.032 98.672C628.744 98.672 631.795 99.4827 634.184 101.104C636.616 102.683 638.408 104.731 639.56 107.248C640.755 109.765 641.352 112.453 641.352 115.312V118.064H611.016V113.456H636.872L635.464 115.952C635.464 113.52 635.08 111.429 634.312 109.68C633.544 107.888 632.392 106.501 630.856 105.52C629.32 104.539 627.379 104.048 625.032 104.048C622.6 104.048 620.573 104.603 618.952 105.712C617.373 106.821 616.179 108.336 615.368 110.256C614.6 112.176 614.216 114.395 614.216 116.912C614.216 119.344 614.6 121.541 615.368 123.504C616.179 125.424 617.416 126.96 619.08 128.112C620.744 129.221 622.856 129.776 625.416 129.776C628.104 129.776 630.28 129.179 631.944 127.984C633.651 126.789 634.675 125.403 635.016 123.824H640.776C640.307 126.171 639.368 128.197 637.96 129.904C636.552 131.611 634.781 132.912 632.648 133.808C630.515 134.704 628.104 135.152 625.416 135.152ZM250.784 209V162.28H257.056V209H250.784ZM255.776 209V203.368H278.432V209H255.776ZM255.776 188.072V182.44H276.448V188.072H255.776ZM255.776 167.912V162.28H277.792V167.912H255.776ZM313.689 221.8V198.824L316.121 193.96C315.993 197.672 315.246 200.723 313.881 203.112C312.516 205.501 310.745 207.272 308.569 208.424C306.436 209.576 304.089 210.152 301.529 210.152C299.097 210.152 296.857 209.683 294.809 208.744C292.804 207.805 291.054 206.504 289.561 204.84C288.11 203.176 286.98 201.277 286.169 199.144C285.358 196.968 284.953 194.664 284.953 192.232V191.08C284.953 188.648 285.358 186.387 286.169 184.296C286.98 182.205 288.132 180.371 289.625 178.792C291.118 177.171 292.889 175.912 294.937 175.016C296.985 174.12 299.268 173.672 301.785 173.672C304.686 173.672 307.225 174.291 309.401 175.528C311.62 176.765 313.369 178.557 314.649 180.904C315.929 183.251 316.633 186.109 316.761 189.48H314.969V174.824H319.833V221.8H313.689ZM302.617 204.52C304.708 204.52 306.606 204.051 308.313 203.112C310.02 202.173 311.385 200.829 312.409 199.08C313.433 197.288 313.945 195.197 313.945 192.808V189.864C313.945 187.517 313.412 185.533 312.345 183.912C311.321 182.248 309.934 180.989 308.185 180.136C306.478 179.24 304.622 178.792 302.617 178.792C300.313 178.792 298.286 179.325 296.537 180.392C294.83 181.459 293.486 182.973 292.505 184.936C291.566 186.856 291.097 189.096 291.097 191.656C291.097 194.216 291.588 196.477 292.569 198.44C293.55 200.36 294.916 201.853 296.665 202.92C298.414 203.987 300.398 204.52 302.617 204.52ZM343.478 210.024C339.425 210.024 336.31 208.701 334.134 206.056C331.958 203.411 330.87 199.592 330.87 194.6V174.76H337.014V195.816C337.014 198.504 337.739 200.616 339.19 202.152C340.641 203.645 342.603 204.392 345.078 204.392C347.638 204.392 349.729 203.581 351.35 201.96C352.971 200.296 353.782 198.035 353.782 195.176V174.76H359.926V209H355.062V194.344H355.83C355.83 197.715 355.382 200.573 354.486 202.92C353.59 205.224 352.246 206.995 350.454 208.232C348.705 209.427 346.465 210.024 343.734 210.024H343.478ZM373.49 209V174.824H379.634V209H373.49ZM368.242 179.688V174.824H379.634V179.688H368.242ZM375.218 169.32C373.852 169.32 372.828 168.957 372.146 168.232C371.506 167.507 371.186 166.589 371.186 165.48C371.186 164.371 371.506 163.453 372.146 162.728C372.828 162.003 373.852 161.64 375.218 161.64C376.583 161.64 377.586 162.003 378.226 162.728C378.908 163.453 379.25 164.371 379.25 165.48C379.25 166.589 378.908 167.507 378.226 168.232C377.586 168.957 376.583 169.32 375.218 169.32ZM404.825 209.384C402.265 209.384 400.046 209.021 398.169 208.296C396.334 207.571 394.905 206.333 393.881 204.584C392.9 202.792 392.409 200.381 392.409 197.352V164.456H398.297V198.12C398.297 199.955 398.788 201.384 399.769 202.408C400.793 203.389 402.222 203.88 404.057 203.88H410.073V209.384H404.825ZM386.521 179.432V174.824H410.073V179.432H386.521ZM416.459 222.312V216.808H421.387C422.838 216.808 424.054 216.616 425.035 216.232C426.059 215.891 426.891 215.293 427.531 214.44C428.214 213.587 428.768 212.456 429.195 211.048L439.947 174.824H445.963L434.571 212.648C433.888 214.909 432.928 216.744 431.691 218.152C430.454 219.603 428.939 220.648 427.147 221.288C425.398 221.971 423.35 222.312 421.003 222.312H416.459ZM426.891 208.232V203.112H434.315V208.232H426.891ZM426.251 208.232L414.027 174.824H420.299L432.011 208.232H426.251Z" fill="black"/>
</svg>
